<svg width="214" height="214" viewBox="0 0 172 214" fill="none" xmlns="http://www.w3.org/2000/svg">

        <defs>
            <linearGradient
                    xmlns="http://www.w3.org/2000/svg"
                    id="a"
            >
                <stop offset="0%" stop-color="#ed6ea0" />

                <stop offset="100%" stop-color="#ec8c69" />
            </linearGradient>
        </defs>


    <path d="M80.8053 0.845327C79.5954 0.392272 78.2937 0.238998 77.0116 0.398616C75.7295 0.558234 74.5052 1.02599 73.4433 1.76189C72.3814 2.49779 71.5135 3.47994 70.9138 4.62434C70.3142 5.76874 70.0006 7.04134 70 8.33333V137.688C62.6083 131.77 53.4579 128.479 43.99 128.333C34.5221 128.187 25.2747 131.195 17.7044 136.883C10.134 142.571 4.67076 150.615 2.17515 159.75C-0.320452 168.884 0.293361 178.589 3.91993 187.336C7.54649 196.083 13.9797 203.375 22.2064 208.063C30.4331 212.752 39.9857 214.571 49.3598 213.234C58.7339 211.896 67.3967 207.478 73.9839 200.676C80.5711 193.874 84.7083 185.074 85.744 175.661C85.913 175.01 85.999 174.34 86 173.667V73.208L160.528 101.155C161.738 101.608 163.04 101.761 164.322 101.601C165.604 101.442 166.828 100.974 167.89 100.238C168.952 99.5022 169.82 98.52 170.419 97.3756C171.019 96.2312 171.333 94.9586 171.333 93.6667V58.8187C171.335 51.7599 169.182 44.8687 165.162 39.0665C161.142 33.2643 155.447 28.8275 148.837 26.3493L80.8053 0.845327V0.845327Z" fill="url(#a)"/>


</svg>
